<svg width="640" height="812" viewBox="0 0 640 812" fill="none" xmlns="http://www.w3.org/2000/svg">
<path d="M321.717 0.0145624C325.223 1.17822 327.073 2.97895 329.752 5.52237C330.262 6.00602 330.773 6.48966 331.299 6.98795C333.002 8.61323 334.69 10.2549 336.377 11.8974C337.288 12.7702 337.288 12.7702 338.218 13.6606C347.092 22.167 355.2 30.9092 362.377 40.8974C362.852 41.5551 363.327 42.2129 363.816 42.8905C381.984 68.3461 395.858 97.8067 403.648 128.074C404.326 130.699 405.046 133.309 405.771 135.921C411.794 158.639 413.672 182.734 413.271 206.155C413.254 207.379 413.236 208.603 413.218 209.864C413.121 215.945 412.961 222.013 412.702 228.089C412.328 240.295 412.463 248.685 420.702 258.124C421.585 259.039 422.467 259.954 423.377 260.897C425.127 262.992 426.81 265.13 428.502 267.272C428.997 267.889 429.492 268.506 430.002 269.141C436.763 277.753 442.621 287.039 448.606 296.197C450.06 298.414 451.529 300.619 453.014 302.815C468.138 325.543 479.214 351.034 484.377 377.897C484.561 378.826 484.561 378.826 484.748 379.773C487.463 393.805 487.915 407.636 488.064 421.897C488.098 424.059 488.132 426.22 488.168 428.382C488.363 440.887 488.419 453.391 488.377 465.897C483.222 465.988 478.492 465.652 473.377 464.897C473.38 466.189 473.38 466.189 473.382 467.508C473.427 488.526 473.46 509.545 473.48 530.564C473.491 540.729 473.505 550.894 473.528 561.059C473.548 569.924 473.561 578.79 473.565 587.656C473.568 592.345 473.574 597.034 473.588 601.722C473.602 606.148 473.606 610.574 473.603 614.999C473.604 616.612 473.608 618.224 473.615 619.836C473.686 635.337 471.974 649.963 468.064 665.022C467.755 666.237 467.446 667.451 467.128 668.702C465.235 675.999 463.141 683.09 460.432 690.128C459.399 692.838 458.553 695.548 457.752 698.335C456.793 701.645 455.62 704.71 454.193 707.854C452.642 711.736 451.561 715.783 450.361 719.784C449.252 723.293 447.927 726.564 446.377 729.897C444.377 728.897 444.377 728.897 443.723 727.195C443.536 726.472 443.35 725.748 443.158 725.003C442.948 724.212 442.738 723.421 442.521 722.606C442.309 721.774 442.096 720.942 441.877 720.085C441.454 718.452 441.027 716.821 440.596 715.19C440.409 714.464 440.223 713.737 440.031 712.988C439.443 710.877 439.443 710.877 438.359 709.008C437.094 706.29 436.813 703.812 436.447 700.839C436.291 699.647 436.135 698.455 435.975 697.227C435.664 694.751 435.357 692.275 435.053 689.798C433.799 680.283 431.726 671.281 427.877 662.46C416.517 635.479 416.671 605.412 417.092 576.713C417.174 570.676 417.213 564.639 417.259 558.602C417.283 555.411 417.318 552.22 417.362 549.03C417.378 547.594 417.395 546.158 417.411 544.723C417.428 543.473 417.446 542.223 417.464 540.935C417.522 537.851 417.522 537.851 416.377 534.897C416.332 532.409 416.329 529.946 416.377 527.46C416.441 523.374 416.462 519.827 415.377 515.897C415.311 514.315 415.291 512.731 415.314 511.147C415.323 510.348 415.332 509.549 415.342 508.725C415.359 507.821 415.359 507.821 415.377 506.897C416.037 506.567 416.697 506.237 417.377 505.897C416.387 505.567 415.397 505.237 414.377 504.897C414.377 491.697 414.377 478.497 414.377 464.897C410.417 465.227 406.457 465.557 402.377 465.897C401.387 465.567 400.397 465.237 399.377 464.897C399.639 470.769 399.905 476.641 400.176 482.512C400.268 484.508 400.358 486.504 400.447 488.5C400.575 491.375 400.708 494.25 400.842 497.124C400.88 498.012 400.919 498.899 400.959 499.814C401.17 504.257 401.588 508.513 402.377 512.897C402.459 514.234 402.507 515.574 402.51 516.913C402.511 517.607 402.512 518.3 402.514 519.015C402.51 519.718 402.506 520.422 402.502 521.147C402.506 521.867 402.51 522.586 402.514 523.327C402.504 528.644 402.504 528.644 401.377 530.897C398.873 531.311 398.873 531.311 395.814 531.522C394.802 531.597 393.791 531.672 392.748 531.749C391.966 531.798 391.183 531.847 390.377 531.897C390.542 533.094 390.707 534.29 390.877 535.522C392.621 551.166 392.621 551.166 390.377 557.897C388.564 558.776 388.564 558.776 386.377 559.46C384.231 560.104 384.231 560.104 382.377 560.897C382.047 561.557 381.717 562.217 381.377 562.897C374.939 563.914 368.597 564.033 362.092 563.995C361.15 563.994 360.208 563.992 359.238 563.991C356.264 563.985 353.289 563.973 350.314 563.96C348.284 563.955 346.253 563.95 344.223 563.946C339.274 563.935 334.325 563.918 329.377 563.897C329.384 564.444 329.39 564.991 329.397 565.554C329.463 571.232 329.509 576.909 329.542 582.586C329.557 584.707 329.577 586.827 329.603 588.948C329.639 591.991 329.657 595.034 329.67 598.077C329.685 599.029 329.701 599.981 329.717 600.962C329.717 602.283 329.717 602.283 329.717 603.631C329.727 604.797 329.727 604.797 329.738 605.986C329.619 606.617 329.5 607.248 329.377 607.897C326.213 610.007 325.112 610.241 321.439 610.335C320.585 610.375 319.73 610.415 318.85 610.456C316.377 609.897 316.377 609.897 314.247 607.967C311.626 603.665 311.872 600.162 311.986 595.222C311.995 593.834 311.995 593.834 312.003 592.418C312.026 589.473 312.076 586.529 312.127 583.585C312.147 581.584 312.165 579.584 312.182 577.583C312.226 572.687 312.295 567.793 312.377 562.897C311.405 563.007 311.405 563.007 310.413 563.118C304.034 563.749 297.759 563.934 291.357 563.862C288.921 563.855 286.484 563.852 284.048 563.851C282.383 563.84 280.718 563.813 279.054 563.771C269.332 563.225 269.332 563.225 260.814 567.004C259.015 569.561 257.67 572.057 256.377 574.897C255.692 575.886 255.008 576.875 254.303 577.893C248.502 586.671 244.545 594.253 246.006 604.913C246.986 612.799 246.722 620.783 245.655 628.641C243.711 643.458 244.149 658.422 244.24 673.334C244.26 677.129 244.269 680.924 244.279 684.72C244.3 692.112 244.334 699.505 244.377 706.897C239.275 697.176 241.131 683.357 240.931 672.558C240.839 667.632 240.736 662.706 240.631 657.78C240.61 656.821 240.59 655.863 240.569 654.875C240.41 647.752 240.154 640.64 239.814 633.522C239.482 626.024 239.191 618.527 239.064 611.022C239.035 610.148 239.005 609.273 238.974 608.372C238.885 598.617 242.981 590.913 248.189 582.897C248.624 582.215 249.058 581.532 249.506 580.828C252.562 576.056 255.753 571.39 259.1 566.815C260.548 564.823 260.548 564.823 261.377 561.897C260.449 561.65 259.521 561.402 258.564 561.147C255.063 559.774 254.222 559.079 252.377 555.897C252.036 553.24 252.036 553.24 252.084 550.257C252.094 549.187 252.103 548.117 252.113 547.015C252.138 545.903 252.163 544.792 252.189 543.647C252.203 542.521 252.216 541.394 252.23 540.233C252.266 537.454 252.315 534.676 252.377 531.897C251.69 531.848 251.003 531.799 250.295 531.749C249.394 531.674 248.493 531.599 247.564 531.522C246.671 531.453 245.778 531.383 244.857 531.311C242.377 530.897 242.377 530.897 239.377 528.897C239.125 525.945 239.051 523.219 239.127 520.272C239.132 519.49 239.137 518.707 239.143 517.901C239.2 513.554 239.571 509.363 240.13 505.047C240.54 501.477 240.705 497.9 240.877 494.311C240.96 492.706 241.043 491.1 241.127 489.495C241.253 486.993 241.378 484.492 241.502 481.99C241.623 479.555 241.75 477.121 241.877 474.686C241.93 473.558 241.93 473.558 241.984 472.408C242.264 467.124 242.264 467.124 243.377 464.897C237.767 465.227 232.157 465.557 226.377 465.897C226.449 467.384 226.521 468.87 226.596 470.401C227.121 481.577 227.536 492.709 227.377 503.897C225.727 503.897 224.077 503.897 222.377 503.897C222.446 504.548 222.515 505.198 222.586 505.868C223.296 513.018 223.568 520.109 223.658 527.292C223.677 528.442 223.695 529.592 223.714 530.776C223.772 534.421 223.825 538.065 223.877 541.71C224.08 560.746 224.08 560.746 225.159 579.745C225.551 585.407 225.563 591.073 225.562 596.747C225.564 598.764 225.583 600.782 225.601 602.8C225.675 618.343 223.244 632.73 219.173 647.681C218.499 650.156 217.841 652.636 217.185 655.116C215.096 662.955 212.907 670.702 210.169 678.346C209.29 681.176 208.805 683.967 208.377 686.897C207.717 686.897 207.057 686.897 206.377 686.897C206.294 688.073 206.212 689.249 206.127 690.46C204.628 703.64 199.667 716.414 195.377 728.897C194.717 728.897 194.057 728.897 193.377 728.897C193.087 727.668 193.087 727.668 192.791 726.413C192.4 724.797 192.4 724.797 192.002 723.147C191.747 722.08 191.491 721.013 191.228 719.913C190.497 717.323 189.626 715.258 188.377 712.897C187.937 711.308 187.5 709.718 187.076 708.124C186.184 705.283 185.018 702.586 183.877 699.835C181.576 693.995 180.536 688.516 179.932 682.284C179.381 678.92 178.455 676.147 177.206 672.997C175.779 669.384 174.557 665.702 173.314 662.022C173.059 661.284 172.803 660.545 172.539 659.784C169.173 649.799 168.077 640.453 168.058 629.928C168.048 628.666 168.038 627.404 168.028 626.104C168 622.66 167.985 619.216 167.972 615.771C167.956 612.115 167.93 608.459 167.904 604.802C167.863 598.631 167.828 592.461 167.799 586.29C167.758 577.741 167.705 569.193 167.649 560.645C167.445 529.063 167.313 497.481 167.377 465.897C162.427 465.897 157.477 465.897 152.377 465.897C152.155 422.364 152.037 378.351 170.377 337.897C170.704 337.153 171.032 336.409 171.37 335.642C182.161 311.14 197.878 289.273 213.867 267.927C216.541 264.332 219.136 260.68 221.728 257.026C223.377 254.897 223.377 254.897 225.449 253.142C227.949 250.231 227.876 248.662 227.875 244.861C227.885 243.637 227.895 242.412 227.906 241.151C227.902 240.497 227.897 239.843 227.893 239.168C227.881 237.084 227.892 235.002 227.909 232.917C227.942 228.452 227.941 223.988 227.939 219.522C227.942 213.723 227.96 207.923 228.006 202.124C228.011 201.407 228.017 200.69 228.023 199.951C228.244 177.27 230.418 154.837 236.377 132.897C236.592 132.082 236.807 131.267 237.028 130.427C242.435 110.168 250.28 90.2837 260.377 71.8974C260.785 71.1533 261.194 70.4092 261.614 69.6425C270.72 53.2063 280.832 37.906 293.377 23.8974C293.879 23.3336 294.381 22.7698 294.898 22.1889C300.704 15.6968 306.519 9.30652 313.377 3.89737C314.191 3.23415 314.191 3.23415 315.021 2.55753C317.319 0.829729 318.799 -0.131574 321.717 0.0145624Z" fill="#102441"/>
<path d="M388.377 130.898C389.005 133.355 389.629 135.814 390.252 138.273C390.426 138.952 390.6 139.631 390.779 140.331C393.078 149.44 394.727 158.438 395.488 167.809C395.572 168.845 395.656 169.881 395.743 170.948C396.671 183.399 396.642 195.837 396.604 208.316C396.603 210.969 396.604 213.623 396.605 216.277C396.606 221.935 396.6 227.594 396.588 233.253C396.572 241.434 396.567 249.615 396.564 257.796C396.56 271.076 396.547 284.357 396.528 297.637C396.509 310.52 396.495 323.404 396.487 336.287C396.486 337.084 396.486 337.881 396.485 338.702C396.483 342.703 396.48 346.703 396.478 350.703C396.457 383.768 396.42 416.833 396.377 449.898C374.267 449.898 352.157 449.898 329.377 449.898C329.351 444.241 329.325 438.585 329.299 432.757C329.274 429.175 329.247 425.593 329.217 422.011C329.168 416.324 329.124 410.638 329.106 404.952C329.091 400.367 329.056 395.784 329.009 391.199C328.994 389.45 328.986 387.7 328.985 385.951C328.983 383.501 328.956 381.053 328.923 378.604C328.928 377.879 328.933 377.155 328.938 376.409C328.867 372.975 328.607 371.193 326.47 368.447C322.956 365.846 320.661 366.422 316.377 366.898C314.509 367.867 314.509 367.867 313.377 369.898C313.067 372.535 312.939 374.942 312.945 377.582C312.934 378.363 312.924 379.143 312.914 379.948C312.883 382.529 312.874 385.109 312.865 387.691C312.848 389.48 312.83 391.269 312.811 393.059C312.763 397.768 312.733 402.478 312.707 407.189C312.672 412.84 312.615 418.49 312.562 424.141C312.483 432.727 312.433 441.312 312.377 449.898C289.607 449.898 266.837 449.898 243.377 449.898C243.266 415.952 243.174 382.008 243.122 348.062C243.115 344.035 243.109 340.008 243.102 335.982C243.101 335.18 243.1 334.378 243.098 333.553C243.077 320.652 243.037 307.752 242.991 294.852C242.944 281.569 242.917 268.287 242.906 255.005C242.9 247.563 242.885 240.122 242.848 232.68C242.555 172.297 242.555 172.297 248.377 144.898C248.512 144.255 248.647 143.612 248.787 142.95C249.634 138.929 250.498 134.912 251.377 130.898C252.138 131.03 252.9 131.162 253.684 131.298C261.389 132.628 269.113 133.711 276.868 134.702C278.875 134.96 280.882 135.222 282.889 135.485C297.322 137.345 311.583 138.267 326.127 138.398C327.498 138.41 327.498 138.41 328.896 138.423C346.303 138.505 372.839 127.118 388.377 130.898Z" fill="white"/>
<path d="M224.377 132.897C224.262 133.554 224.148 134.211 224.03 134.887C222.434 144.22 221.032 153.571 219.814 162.96C219.699 163.833 219.584 164.706 219.466 165.605C217.894 177.885 217.201 190.009 217.182 202.39C217.177 203.71 217.172 205.029 217.167 206.389C217.153 212.956 217.212 219.515 217.357 226.079C217.588 246.19 217.588 246.19 211.643 252.659C209.913 254.104 208.161 255.521 206.377 256.897C204.758 258.829 204.758 258.829 203.529 260.796C203.157 261.37 202.784 261.944 202.4 262.536C202.042 263.109 201.684 263.682 201.314 264.272C200.481 265.562 199.646 266.851 198.811 268.14C198.404 268.771 197.998 269.402 197.58 270.053C195.738 272.877 193.809 275.634 191.877 278.397C190.773 279.993 190.773 279.993 189.647 281.62C188.503 283.271 187.36 284.921 186.207 286.565C178.319 297.829 171.706 309.698 165.377 321.897C164.982 322.658 164.587 323.42 164.18 324.204C152.263 347.501 144.187 374.69 142.85 400.854C142.808 401.655 142.767 402.455 142.724 403.28C142.126 416.003 142.025 428.745 141.845 441.479C141.794 445.033 141.738 448.588 141.684 452.142C141.577 459.06 141.476 465.979 141.377 472.897C145.997 473.227 150.617 473.557 155.377 473.897C155.377 514.817 155.377 555.737 155.377 597.897C154.717 597.897 154.057 597.897 153.377 597.897C153.377 597.237 153.377 596.577 153.377 595.897C152.783 595.625 152.19 595.353 151.578 595.073C149.428 593.925 147.93 592.759 146.162 591.097C145.565 590.538 144.968 589.98 144.352 589.405C143.721 588.804 143.09 588.204 142.439 587.585C141.78 586.962 141.12 586.339 140.441 585.697C138.412 583.772 136.392 581.837 134.377 579.897C133.775 579.319 133.173 578.741 132.553 578.145C125.285 571.12 118.586 563.893 112.377 555.897C111.578 554.892 110.779 553.887 109.955 552.851C91.7772 529.824 77.6963 504.338 67.377 476.897C67.0691 476.111 66.7611 475.324 66.4439 474.513C42.7421 412.309 48.797 338.345 74.8994 278.186C92.8994 238.123 119.52 201.002 154.377 173.897C155.112 173.272 155.847 172.647 156.604 172.003C172.988 158.18 192.872 148.267 211.752 138.335C212.77 137.797 213.788 137.26 214.837 136.706C216.261 135.964 216.261 135.964 217.713 135.206C218.99 134.538 218.99 134.538 220.293 133.856C222.377 132.897 222.377 132.897 224.377 132.897Z" fill="#102441"/>
<path d="M416.377 132.897C421.995 133.445 426.303 135.554 431.252 138.085C432.11 138.519 432.967 138.953 433.851 139.401C441.021 143.087 448.031 147.037 455.002 151.085C455.984 151.654 456.966 152.224 457.978 152.81C466.774 157.988 475.094 163.586 482.814 170.272C483.929 171.234 485.045 172.195 486.162 173.155C486.705 173.622 487.248 174.089 487.807 174.57C490.076 176.488 492.418 178.31 494.752 180.147C504.901 188.427 514.201 197.954 522.283 208.253C523.717 210.063 525.199 211.836 526.721 213.573C557.732 249.05 575.099 297.198 583.377 342.897C583.556 343.885 583.736 344.872 583.92 345.889C587.065 364.105 586.889 382.462 586.427 400.88C586.382 402.705 586.347 404.53 586.312 406.354C585.667 432.691 578.204 458.75 568.814 483.21C568.553 483.892 568.292 484.573 568.024 485.275C562.922 498.454 556.819 511.26 549.564 523.397C549.153 524.091 548.741 524.785 548.317 525.5C537.13 544.096 524.073 562.655 508.49 577.78C506.513 579.761 504.727 581.808 502.939 583.96C499.572 587.903 495.72 590.991 491.611 594.136C489.157 596 489.157 596 486.377 598.897C486.047 557.977 485.717 517.057 485.377 474.897C490.327 474.897 495.277 474.897 500.377 474.897C500.291 466.342 500.197 457.787 500.089 449.232C500.04 445.257 499.994 441.283 499.955 437.308C499.826 413.027 499.826 413.027 497.377 388.897C497.226 387.862 497.075 386.827 496.92 385.761C496.511 383.109 496.055 380.473 495.564 377.835C495.394 376.915 495.224 375.995 495.048 375.047C493.397 366.472 491.168 358.169 488.377 349.897C488.153 349.231 487.929 348.564 487.698 347.876C484.376 338.169 480.211 329.035 475.452 319.954C474.349 317.844 473.265 315.725 472.182 313.604C465.269 300.177 457.232 287.918 448.329 275.732C444.168 270.033 440.144 264.255 436.243 258.375C434.498 255.787 432.846 253.36 430.617 251.159C426.123 246.71 424.579 243.606 424.508 237.287C424.532 236.349 424.556 235.411 424.58 234.444C424.576 233.443 424.572 232.441 424.568 231.409C424.562 229.266 424.571 227.123 424.594 224.979C424.65 219.342 424.59 213.706 424.541 208.069C424.534 206.944 424.527 205.819 424.52 204.66C424.435 194.698 423.891 184.818 423.002 174.897C422.937 174.163 422.871 173.428 422.804 172.671C421.575 159.19 419.744 146.019 416.377 132.897Z" fill="#102441"/>
<path d="M381.377 560.897C393.691 579.368 403.998 600.059 400.874 622.515C400.12 629.347 400.147 636.221 400.054 643.086C399.991 647.478 399.904 651.869 399.822 656.261C399.721 661.807 399.625 667.353 399.554 672.899C399.202 699.43 398.523 725.286 387.377 749.897C387.074 750.576 386.771 751.255 386.459 751.955C382.412 760.882 377.887 768.498 371.377 775.897C370.723 776.734 370.07 777.571 369.397 778.433C367.499 780.749 365.569 782.684 363.314 784.647C362.643 785.24 361.971 785.833 361.279 786.444C359.377 787.897 359.377 787.897 356.377 788.897C356.377 789.557 356.377 790.217 356.377 790.897C348.108 798.184 337.949 803.535 328.377 808.897C326.793 809.816 326.793 809.816 325.178 810.753C321.834 812.12 320.751 812.113 317.377 810.897C314.713 809.645 312.138 808.261 309.564 806.835C308.525 806.269 308.525 806.269 307.465 805.692C305.766 804.767 304.071 803.833 302.377 802.897C302.377 802.237 302.377 801.577 302.377 800.897C301.515 800.727 301.515 800.727 300.635 800.554C292.325 798.138 285.494 790.668 279.377 784.897C278.76 784.344 278.142 783.791 277.506 783.222C271.787 777.899 267.598 771.416 263.377 764.897C262.428 763.44 262.428 763.44 261.459 761.952C256.536 753.975 253.315 745.735 250.377 736.897C250.084 736.042 249.79 735.187 249.488 734.305C243.159 715.407 242.426 697.898 242.78 678.234C242.826 675.189 242.839 672.144 242.85 669.098C242.907 654.888 243.068 640.74 244.941 626.631C245.918 618.261 245.658 609.939 244.627 601.585C243.842 593.243 247.266 586.883 252.229 580.401C253.801 578.342 255.052 576.123 256.377 573.897C261.978 565.296 261.978 565.296 263.377 563.897C264.911 563.775 266.45 563.72 267.989 563.692C268.969 563.672 269.95 563.652 270.961 563.632C272.028 563.615 273.094 563.598 274.193 563.581C275.28 563.56 276.366 563.539 277.485 563.518C280.97 563.452 284.455 563.394 287.939 563.335C290.296 563.292 292.652 563.248 295.008 563.204C300.797 563.097 306.587 562.995 312.377 562.897C312.392 564.149 312.406 565.4 312.421 566.689C312.479 571.334 312.556 575.978 312.639 580.622C312.673 582.632 312.701 584.642 312.723 586.651C312.757 589.541 312.809 592.43 312.865 595.319C312.872 596.217 312.878 597.115 312.885 598.041C312.991 602.955 312.991 602.955 314.758 607.469C317.014 609.459 318.475 609.337 321.439 609.21C322.317 609.185 323.195 609.161 324.1 609.136C326.406 609.029 326.406 609.029 328.377 607.897C328.707 593.377 329.037 578.857 329.377 563.897C346.537 563.567 363.697 563.237 381.377 562.897C381.377 562.237 381.377 561.577 381.377 560.897Z" fill="#102441"/>
<path d="M248.377 68.8975C246.962 73.5862 244.967 77.7724 242.689 82.085C238.727 89.7704 235.701 97.6717 232.822 105.816C232.566 106.526 232.31 107.237 232.046 107.969C231.491 109.57 231.01 111.197 230.549 112.827C229.377 114.898 229.377 114.898 226.885 115.987C225.768 116.267 224.652 116.547 223.502 116.835C192.832 125.701 161.355 146.145 138.377 167.898C137.049 169.071 135.716 170.238 134.377 171.398C133.729 171.966 133.08 172.534 132.412 173.12C131.01 174.344 129.601 175.56 128.186 176.769C113.009 189.995 100.213 205.242 89.2363 222.081C87.5349 224.658 85.7563 227.151 83.9394 229.648C51.7818 275.556 38.2698 334.048 38.0019 389.273C37.9939 390.196 37.9858 391.119 37.9776 392.071C37.8903 405.286 39.04 417.895 41.3769 430.898C41.5809 432.076 41.7849 433.255 41.9951 434.469C48.9912 473.517 62.8268 510.259 85.2519 543.085C85.8371 543.942 85.8371 543.942 86.4342 544.817C93.3903 554.934 100.942 564.534 109.377 573.46C110.413 574.566 111.448 575.673 112.482 576.78C112.978 577.31 113.473 577.841 113.984 578.387C115.93 580.498 117.804 582.67 119.689 584.835C129.028 595.218 139.555 604.337 150.646 612.788C155.244 616.34 155.244 616.34 155.789 618.626C156.628 627.577 156.486 636.541 156.439 645.523C156.434 647.211 156.43 648.9 156.426 650.589C156.415 654.692 156.398 658.795 156.377 662.898C151.184 660.414 146.546 657.797 141.877 654.398C141.288 653.969 140.699 653.54 140.092 653.098C138.835 652.18 137.58 651.259 136.327 650.335C134.337 648.868 132.338 647.416 130.338 645.964C122.82 640.461 115.748 634.737 108.971 628.343C106.818 626.313 104.632 624.373 102.377 622.46C94.1095 615.28 86.3622 607.325 79.3769 598.898C78.933 598.367 78.4891 597.837 78.0317 597.291C60.4512 576.249 46.1017 554.06 33.3769 529.773C32.849 528.766 32.3212 527.76 31.7773 526.723C28.2698 519.92 25.2202 513.002 22.3769 505.898C21.9245 504.781 21.472 503.665 21.0058 502.515C13.5893 483.444 8.01288 464.127 4.18941 444.023C3.95714 442.842 3.95714 442.842 3.72018 441.637C0.357457 423.041 -0.0321566 404.115 0.00191343 385.273C0.00245743 384.132 0.00300138 382.991 0.00356138 381.816C0.0414734 364.48 0.912112 347.924 4.37691 330.898C4.85345 328.369 5.32865 325.84 5.80269 323.312C8.20922 310.818 11.0186 298.855 15.3769 286.898C16.6559 282.896 17.8538 278.869 19.0683 274.847C36.0997 221.414 72.8822 167.995 117.377 133.898C118.474 133.025 119.569 132.15 120.662 131.273C124.203 128.44 127.78 125.658 131.377 122.898C132.941 121.695 132.941 121.695 134.537 120.468C149.599 109.18 166.417 99.8982 183.403 91.8438C185.514 90.8317 187.605 89.7845 189.697 88.7335C202.54 82.3624 215.811 77.4963 229.377 72.8975C230.129 72.6404 230.882 72.3832 231.657 72.1182C237.429 70.1636 242.241 68.6909 248.377 68.8975Z" fill="#102441"/>
<path d="M392.377 68.8975C433 71.6991 482.625 99.1485 513.377 124.897C513.951 125.377 514.526 125.857 515.118 126.351C534.741 142.819 553.911 159.995 568.908 180.881C570.371 182.889 571.88 184.851 573.412 186.808C593.908 213.097 611.744 245.828 621.377 277.776C622.322 280.938 622.322 280.938 623.783 283.976C626.188 289.445 627.426 295.308 628.877 301.085C629.32 302.818 629.32 302.818 629.771 304.587C630.363 306.905 630.949 309.225 631.53 311.546C632.068 313.674 632.619 315.799 633.187 317.919C635.251 325.735 636.599 333.562 637.564 341.585C637.694 342.655 637.694 342.655 637.826 343.747C639.654 359.573 639.788 375.42 639.814 391.335C639.82 392.552 639.826 393.769 639.833 395.023C639.882 409.946 639.098 424.223 636.377 438.897C636.158 440.191 635.939 441.485 635.714 442.818C630.375 473.925 620.13 503.885 605.451 531.843C604.275 534.092 603.123 536.352 601.971 538.612C594.284 553.592 585.364 567.361 575.377 580.897C574.979 581.437 574.581 581.977 574.171 582.533C561.354 599.801 546.921 616.105 530.377 629.897C529.535 630.628 528.693 631.359 527.826 632.112C516.353 641.94 503.989 650.551 491.014 658.276C488.687 659.707 486.527 661.217 484.377 662.897C483.717 662.567 483.057 662.237 482.377 661.897C482.709 660.92 483.04 659.943 483.382 658.936C484.603 654.646 484.487 650.71 484.299 646.288C484.27 644.629 484.246 642.97 484.225 641.312C484.186 638.73 484.127 636.157 484.003 633.578C483.376 619.647 483.376 619.647 486.696 615.084C489.985 611.793 493.744 609.313 497.716 606.921C499.766 605.657 501.57 604.2 503.385 602.62C503.91 602.176 504.435 601.732 504.976 601.274C515.214 592.458 524.734 583.25 533.068 572.57C534.598 570.615 536.146 568.675 537.693 566.733C559.597 539.097 576.743 508.587 587.698 474.975C588.293 473.155 588.92 471.345 589.553 469.538C592.535 460.643 594.641 451.641 596.564 442.46C596.814 441.283 597.064 440.105 597.322 438.893C600.557 422.999 601.73 407.529 601.627 391.335C601.624 390.462 601.621 389.588 601.618 388.689C601.481 355.698 596.643 324.994 586.189 293.71C585.83 292.632 585.83 292.632 585.462 291.531C581.469 279.629 577.068 268.108 571.377 256.897C570.75 255.647 570.75 255.647 570.111 254.371C559.44 233.303 546.438 212.29 530.377 194.897C529.672 194.087 528.967 193.276 528.24 192.44C515.331 177.669 501.079 164.612 485.377 152.897C484.752 152.426 484.127 151.955 483.482 151.47C463.416 136.445 439.11 121.954 414.678 115.616C412.377 114.897 412.377 114.897 410.377 112.897C409.766 111.034 409.219 109.149 408.705 107.257C406.301 99.1599 402.786 91.7417 399.127 84.1475C398.153 82.1062 397.182 80.0639 396.212 78.0207C395.345 76.1979 394.472 74.3782 393.599 72.5586C392.377 69.8975 392.377 69.8975 392.377 68.8975Z" fill="#102441"/>
<path d="M178.377 502.897C193.083 502.78 207.7 502.918 222.377 503.897C223.205 511.705 223.56 519.444 223.658 527.292C223.677 528.442 223.695 529.592 223.714 530.776C223.772 534.421 223.825 538.065 223.877 541.71C224.08 560.746 224.08 560.746 225.159 579.745C225.551 585.407 225.563 591.073 225.562 596.747C225.564 598.765 225.583 600.782 225.602 602.8C225.675 618.343 223.244 632.73 219.173 647.681C218.5 650.156 217.841 652.636 217.186 655.116C215.096 662.955 212.907 670.703 210.169 678.346C209.29 681.176 208.805 683.967 208.377 686.897C207.717 686.897 207.057 686.897 206.377 686.897C206.294 688.073 206.212 689.249 206.127 690.46C204.628 703.64 199.667 716.414 195.377 728.897C194.717 728.897 194.057 728.897 193.377 728.897C193.184 728.078 192.99 727.258 192.791 726.413C192.531 725.335 192.27 724.258 192.002 723.147C191.747 722.08 191.492 721.013 191.229 719.913C190.497 717.323 189.627 715.258 188.377 712.897C187.937 711.308 187.5 709.718 187.076 708.124C186.184 705.283 185.018 702.586 183.877 699.835C181.576 693.995 180.536 688.516 179.932 682.284C179.381 678.92 178.455 676.147 177.206 672.997C175.779 669.384 174.557 665.702 173.314 662.022C173.059 661.284 172.803 660.545 172.539 659.784C169.126 649.66 168.084 640.259 168.134 629.585C168.131 627.642 168.131 627.642 168.128 625.659C168.124 622.137 168.131 618.615 168.141 615.093C168.15 611.398 168.148 607.704 168.148 604.009C168.149 597.816 168.157 591.622 168.171 585.429C168.187 578.266 168.192 571.103 168.191 563.94C168.191 556.304 168.198 548.668 168.207 541.033C168.209 538.833 168.21 536.634 168.21 534.434C168.211 530.348 168.221 526.261 168.232 522.175C168.231 520.954 168.231 519.733 168.23 518.476C168.235 517.368 168.239 516.261 168.243 515.12C168.245 514.154 168.247 513.188 168.248 512.193C168.377 509.897 168.377 509.897 169.377 507.897C173.096 505.935 175.349 505.747 179.377 506.897C179.047 505.577 178.717 504.257 178.377 502.897Z" fill="#102441"/>
<path d="M426.4 502.765C428.171 502.762 428.171 502.762 429.978 502.759C431.223 502.763 432.469 502.768 433.752 502.772C435.644 502.775 435.644 502.775 437.573 502.778C445.881 502.817 454.109 503.027 462.377 503.897C462.377 504.557 462.377 505.217 462.377 505.897C466.007 505.897 469.637 505.897 473.377 505.897C473.423 522.441 473.459 538.984 473.481 555.527C473.491 563.21 473.505 570.893 473.528 578.576C473.548 585.279 473.561 591.983 473.565 598.687C473.568 602.23 473.574 605.773 473.588 609.316C473.665 628.587 472.927 646.291 468.064 665.022C467.601 666.844 467.601 666.844 467.128 668.702C465.235 675.999 463.141 683.09 460.432 690.128C459.4 692.838 458.553 695.548 457.752 698.335C456.793 701.645 455.62 704.711 454.193 707.854C452.642 711.737 451.561 715.783 450.361 719.784C449.252 723.293 447.927 726.564 446.377 729.897C444.377 728.897 444.377 728.897 443.723 727.195C443.536 726.472 443.35 725.748 443.158 725.003C442.843 723.817 442.843 723.817 442.522 722.606C442.309 721.774 442.096 720.942 441.877 720.085C441.454 718.452 441.027 716.821 440.596 715.19C440.409 714.464 440.223 713.737 440.031 712.988C439.443 710.877 439.443 710.877 438.359 709.008C437.095 706.29 436.813 703.812 436.447 700.839C436.291 699.647 436.135 698.455 435.975 697.228C435.664 694.751 435.357 692.275 435.053 689.798C433.799 680.283 431.726 671.281 427.877 662.46C416.517 635.48 416.671 605.412 417.092 576.713C417.174 570.676 417.213 564.639 417.259 558.602C417.283 555.411 417.318 552.22 417.362 549.03C417.378 547.594 417.395 546.158 417.411 544.723C417.428 543.473 417.446 542.223 417.464 540.935C417.522 537.851 417.522 537.851 416.377 534.897C416.332 532.409 416.329 529.946 416.377 527.46C416.441 523.374 416.463 519.828 415.377 515.897C415.311 514.315 415.291 512.731 415.314 511.147C415.323 510.348 415.333 509.549 415.342 508.726C415.353 508.122 415.365 507.519 415.377 506.897C416.037 506.567 416.697 506.237 417.377 505.897C417.047 505.237 416.717 504.577 416.377 503.897C419.766 502.871 422.868 502.768 426.4 502.765Z" fill="#102441"/>
<path d="M321.439 152.647C322.195 152.638 322.951 152.629 323.73 152.619C336.334 152.69 349.298 158.065 358.377 166.897C369.238 179.894 374.955 193.95 374.775 210.979C373.241 226.065 364.267 240.743 352.674 250.257C340.707 258.805 325.919 262.721 311.385 260.425C296.402 257.175 285.264 249.474 276.397 237.144C274.93 234.772 273.615 232.395 272.377 229.897C271.511 228.165 271.511 228.165 270.627 226.397C265.762 212.776 265.991 198.384 271.596 184.983C278.517 171.334 290.776 159.494 305.24 154.218C310.558 152.71 315.952 152.694 321.439 152.647Z" fill="#102441"/>
<path d="M307.064 562.835C308.586 562.848 308.586 562.848 310.139 562.862C310.877 562.874 311.616 562.886 312.377 562.897C312.392 564.149 312.406 565.4 312.421 566.689C312.479 571.334 312.556 575.978 312.639 580.622C312.673 582.632 312.701 584.642 312.723 586.651C312.757 589.541 312.809 592.43 312.865 595.319C312.872 596.217 312.878 597.115 312.885 598.041C312.991 602.955 312.991 602.955 314.758 607.469C317.013 609.459 318.475 609.337 321.439 609.21C322.317 609.185 323.195 609.161 324.1 609.136C326.406 609.029 326.406 609.029 328.377 607.897C328.707 593.377 329.037 578.857 329.377 563.897C336.307 563.897 343.237 563.897 350.377 563.897C350.563 582.04 350.705 600.182 350.791 618.324C350.833 626.75 350.889 635.175 350.98 643.6C351.061 650.949 351.112 658.297 351.13 665.647C351.14 669.533 351.164 673.418 351.223 677.305C351.671 708.203 351.671 708.203 342.377 718.897C341.682 719.799 340.986 720.7 340.27 721.629C335.66 727.499 330.104 731.54 322.9 733.608C317.25 734.256 312.292 731.241 307.787 728.081C299.594 721.226 292.318 711.625 290.377 700.897C290.07 696.441 290.066 691.992 290.058 687.527C290.049 686.176 290.039 684.825 290.028 683.474C290 679.824 289.985 676.174 289.972 672.523C289.957 668.702 289.93 664.881 289.904 661.06C289.857 653.832 289.821 646.604 289.788 639.376C289.749 631.144 289.7 622.912 289.65 614.679C289.546 597.752 289.457 580.825 289.377 563.897C291.133 563.731 292.889 563.567 294.646 563.404C296.113 563.266 296.113 563.266 297.609 563.126C300.77 562.865 303.894 562.798 307.064 562.835Z" fill="white"/>
<path d="M226.377 278.897C227.037 278.897 227.697 278.897 228.377 278.897C228.4 298.996 228.418 319.094 228.429 339.192C228.434 348.525 228.441 357.858 228.452 367.191C228.462 375.331 228.469 383.471 228.471 391.611C228.472 395.916 228.475 400.221 228.483 404.527C228.489 408.59 228.492 412.652 228.49 416.715C228.49 418.196 228.492 419.677 228.496 421.158C228.519 430.412 228.482 439.697 227.377 448.897C226.377 449.897 226.377 449.897 224.055 450.018C223.027 450.015 221.998 450.013 220.939 450.011C219.197 450.011 219.197 450.011 217.421 450.011C215.525 450.003 215.525 450.003 213.592 449.995C212.306 449.994 211.02 449.992 209.695 449.991C206.27 449.987 202.846 449.977 199.422 449.966C195.93 449.956 192.437 449.951 188.945 449.946C182.089 449.936 175.233 449.918 168.377 449.897C167.732 401.596 167.732 401.596 171.377 382.897C171.533 382.07 171.688 381.242 171.849 380.39C176.91 354.606 188.574 329.448 203.799 308.123C205.628 305.543 207.314 302.885 209.002 300.21C212.419 295.05 216.216 290.337 220.252 285.647C221.11 284.645 221.11 284.645 221.985 283.621C223.402 282.004 224.884 280.445 226.377 278.897Z" fill="#102441"/>
<path d="M319.377 18.8975C322.377 19.8975 322.377 19.8975 323.689 22.2725C323.916 23.1387 324.143 24.005 324.377 24.8975C323.717 25.8875 323.057 26.8775 322.377 27.8975C322.695 32.7258 323.878 36.5867 325.889 40.96C326.396 42.0788 326.904 43.1976 327.427 44.3503C328.237 46.1062 328.237 46.1062 329.064 47.8975C330.172 50.3342 331.272 52.7741 332.373 55.2139C332.899 56.3768 333.425 57.5397 333.966 58.7378C336.102 63.5224 338.055 68.3585 339.947 73.2451C341.051 76.0648 342.192 78.8544 343.369 81.6436C348.624 94.2115 352.23 106.432 354.377 119.897C350.255 120.671 346.346 121.032 342.154 121.059C340.941 121.068 339.728 121.078 338.478 121.088C337.175 121.092 335.872 121.096 334.529 121.101C333.855 121.103 333.181 121.106 332.486 121.109C328.902 121.124 325.318 121.133 321.734 121.138C318.814 121.142 315.895 121.156 312.975 121.179C270.553 121.505 270.553 121.505 258.377 115.897C259.712 108.804 261.948 102.607 264.877 96.0225C265.318 95.023 265.758 94.0236 266.212 92.9939C279.229 63.8759 296.747 41.2373 319.377 18.8975Z" fill="#102441"/>
<path d="M318.564 168.647C319.589 168.642 320.614 168.637 321.67 168.632C324.377 168.897 324.377 168.897 327.377 170.897C328.347 172.771 329.308 174.651 330.205 176.562C331.468 179.08 332.926 181.397 334.439 183.772C339.419 191.992 341.826 200.351 339.721 209.862C336.636 221.044 331.657 230.486 322.978 238.276C321.127 239.912 321.127 239.912 320.377 242.897C310.889 243.51 303.932 241.331 296.564 235.21C292.391 231.235 289.694 227.15 287.377 221.897C287.059 221.235 286.74 220.572 286.412 219.89C282.641 210.748 282.947 199.462 286.502 190.335C291.409 180.248 298.853 173.909 309.334 169.714C312.534 168.855 315.257 168.631 318.564 168.647Z" fill="#102441"/>
<path d="M226.377 278.897C227.037 278.897 227.697 278.897 228.377 278.897C229.761 293.776 229.761 293.776 226.654 298.538C225.093 299.941 223.497 301.306 221.873 302.636C217.547 306.556 215.144 311.725 212.464 316.834C211.287 319.068 210.078 321.281 208.865 323.495C204.212 332.069 200.075 340.62 196.615 349.741C195.604 352.317 194.514 354.664 193.189 357.085C191.022 361.195 190.128 365.533 189.092 370.038C188.505 372.385 187.822 374.434 186.877 376.647C184.763 381.916 184.047 387.576 183.068 393.14C182.571 395.844 182.02 398.393 181.252 401.022C178.758 412.066 179.14 423.973 178.814 435.272C178.771 436.702 178.727 438.132 178.684 439.562C178.578 443.007 178.477 446.452 178.377 449.897C175.077 449.897 171.777 449.897 168.377 449.897C167.732 401.596 167.732 401.596 171.377 382.897C171.533 382.07 171.688 381.242 171.849 380.39C176.91 354.606 188.574 329.448 203.799 308.123C205.628 305.543 207.314 302.885 209.002 300.21C212.419 295.05 216.216 290.337 220.252 285.647C221.11 284.645 221.11 284.645 221.985 283.621C223.402 282.004 224.884 280.445 226.377 278.897Z" fill="white"/>
<path d="M324.377 23.8975C336.838 29.5598 345.705 43.4525 352.377 54.8975C353.134 56.109 353.895 57.3173 354.662 58.5225C360.722 68.0963 360.722 68.0963 361.377 71.8975C362.037 71.8975 362.697 71.8975 363.377 71.8975C363.885 73.0576 364.393 74.2178 364.916 75.4131C369.582 86.0245 369.582 86.0245 374.627 96.46C375.097 97.3907 375.568 98.3214 376.053 99.2803C376.925 101.004 377.797 102.728 378.67 104.452C379.048 105.238 379.425 106.025 379.814 106.835C380.308 107.838 380.308 107.838 380.811 108.862C381.538 111.478 381.067 113.306 380.377 115.897C377.357 116.404 374.336 116.903 371.314 117.397C370.467 117.541 369.619 117.684 368.746 117.831C363.884 118.619 359.302 119.058 354.377 118.897C352.821 115.39 351.88 111.929 351.086 108.18C349.315 99.8566 346.792 92.2153 343.43 84.3813C342.139 81.3364 340.889 78.2758 339.639 75.2139C338.615 72.7123 337.59 70.2109 336.564 67.71C336.307 67.0809 336.049 66.4519 335.783 65.8038C333.16 59.4215 330.501 53.0697 327.564 46.8232C326.928 45.4653 326.928 45.4653 326.279 44.0798C325.495 42.4291 324.696 40.7853 323.88 39.1506C321.594 34.3471 320.897 31.2351 322.377 25.8975C323.037 25.2375 323.697 24.5775 324.377 23.8975Z" fill="#102441"/>
<path d="M514.377 265.897C517.189 265.96 517.189 265.96 520.377 266.897C523.59 272.372 524.817 278.78 526.377 284.897C527.497 284.946 528.617 284.995 529.771 285.046C531.244 285.121 532.717 285.196 534.189 285.272C534.927 285.303 535.665 285.334 536.426 285.366C540.196 285.571 542.173 285.762 545.377 287.897C545.377 289.217 545.377 290.537 545.377 291.897C543.878 292.746 543.878 292.746 542.35 293.612C541.046 294.353 539.743 295.094 538.439 295.835C537.45 296.395 537.45 296.395 536.441 296.966C533.219 298.667 533.219 298.667 530.377 300.897C530.442 302.938 530.442 302.938 530.752 305.272C530.887 306.46 530.887 306.46 531.025 307.671C531.34 310.062 531.34 310.062 532.377 312.897C532.416 315.23 532.421 317.565 532.377 319.897C527.916 318.503 524.925 316.043 521.439 313.042C519.415 311.684 519.415 311.684 516.947 311.999C513.921 313.057 511.805 314.528 509.252 316.46C504.701 319.897 504.701 319.897 501.377 319.897C501.521 318.231 501.667 316.564 501.814 314.897C501.896 313.969 501.977 313.041 502.061 312.085C502.431 308.348 502.911 304.623 503.377 300.897C498.427 297.597 493.477 294.297 488.377 290.897C488.707 289.577 489.037 288.257 489.377 286.897C493.231 284.738 497.355 284.34 501.689 283.772C502.944 283.605 504.198 283.437 505.49 283.265C506.443 283.143 507.395 283.022 508.377 282.897C508.726 281.838 509.076 280.778 509.436 279.687C509.895 278.298 510.355 276.91 510.814 275.522C511.045 274.824 511.275 274.125 511.512 273.405C513.264 268.124 513.264 268.124 514.377 265.897Z" fill="white"/>
<path d="M117.377 265.897C120.189 265.96 120.189 265.96 123.377 266.897C126.59 272.372 127.817 278.78 129.377 284.897C130.497 284.946 131.617 284.995 132.771 285.046C134.244 285.121 135.717 285.196 137.189 285.272C137.927 285.303 138.665 285.334 139.426 285.366C143.196 285.571 145.173 285.762 148.377 287.897C148.377 289.217 148.377 290.537 148.377 291.897C146.878 292.746 146.878 292.746 145.35 293.612C144.046 294.353 142.743 295.094 141.439 295.835C140.45 296.395 140.45 296.395 139.441 296.966C136.219 298.667 136.219 298.667 133.377 300.897C133.442 302.938 133.442 302.938 133.752 305.272C133.887 306.46 133.887 306.46 134.025 307.671C134.34 310.062 134.34 310.062 135.377 312.897C135.416 315.23 135.421 317.565 135.377 319.897C130.916 318.503 127.925 316.043 124.439 313.042C122.415 311.684 122.415 311.684 119.947 311.999C116.921 313.057 114.805 314.528 112.252 316.46C107.701 319.897 107.701 319.897 104.377 319.897C104.521 318.231 104.667 316.564 104.814 314.897C104.896 313.969 104.977 313.041 105.061 312.085C105.431 308.348 105.911 304.623 106.377 300.897C101.427 297.597 96.477 294.297 91.377 290.897C91.707 289.577 92.037 288.257 92.377 286.897C96.231 284.738 100.355 284.34 104.689 283.772C105.944 283.605 107.198 283.437 108.49 283.265C109.443 283.143 110.395 283.022 111.377 282.897C111.726 281.838 112.076 280.778 112.436 279.687C112.895 278.298 113.355 276.91 113.814 275.522C114.045 274.824 114.275 274.125 114.512 273.405C116.264 268.124 116.264 268.124 117.377 265.897Z" fill="white"/>
<path d="M319.377 18.8975C322.377 19.8975 322.377 19.8975 323.939 21.96C324.458 25.443 324.058 25.8884 322.064 28.6475C318.791 32.647 315.111 36.2046 311.33 39.7217C309.249 42.0405 308.403 43.9829 307.377 46.8975C306.39 48.2402 305.391 49.5748 304.377 50.8975C304.047 51.8875 303.717 52.8775 303.377 53.8975C302.717 53.8975 302.057 53.8975 301.377 53.8975C301.15 54.5575 300.923 55.2175 300.689 55.8975C298.989 59.784 296.981 63.5343 294.377 66.8975C293.717 66.8975 293.057 66.8975 292.377 66.8975C292.291 67.5845 292.204 68.2716 292.115 68.9795C291.204 72.5828 289.477 75.4439 287.564 78.585C284.254 84.2112 281.595 89.7469 279.377 95.8975C278.879 97.2185 278.379 98.5388 277.877 99.8584C275.609 105.839 273.361 111.814 271.377 117.897C266.456 118.064 262.874 118.146 258.377 115.897C259.712 108.804 261.948 102.607 264.877 96.0225C265.318 95.023 265.758 94.0236 266.212 92.9939C279.229 63.8759 296.747 41.2373 319.377 18.8975Z" fill="white"/>
<path d="M324.377 168.897C336.163 171.169 344.639 175.29 351.689 185.272C357.616 194.88 358.856 204.562 356.873 215.737C354.199 225.654 348.732 232.944 340.377 238.897C334.047 242.161 327.712 244.067 320.564 243.96C319.774 243.951 318.984 243.942 318.17 243.933C317.578 243.921 316.987 243.909 316.377 243.897C318.357 243.402 318.357 243.402 320.377 242.897C320.478 242.299 320.578 241.701 320.682 241.085C321.506 238.49 322.457 237.659 324.502 235.897C333.145 227.557 339.231 214.794 339.814 202.71C338.543 191.634 333.49 183.067 327.377 173.897C327.377 172.907 327.377 171.917 327.377 170.897C326.387 170.567 325.397 170.237 324.377 169.897C324.377 169.567 324.377 169.237 324.377 168.897Z" fill="white"/>
<path d="M258.377 466.897C264.782 466.873 271.186 466.855 277.591 466.843C279.767 466.838 281.944 466.831 284.12 466.822C287.258 466.81 290.395 466.804 293.533 466.8C294.981 466.792 294.981 466.792 296.457 466.784C301.86 466.784 307.031 467.103 312.377 467.897C312.377 473.177 312.377 478.457 312.377 483.897C294.365 485.041 276.415 484.992 258.377 484.897C258.377 478.957 258.377 473.017 258.377 466.897Z" fill="#102441"/>
<path d="M329.377 466.897C346.867 466.897 364.357 466.897 382.377 466.897C382.377 481.897 382.377 481.897 381.377 483.897C364.217 484.227 347.057 484.557 329.377 484.897C329.377 478.957 329.377 473.017 329.377 466.897Z" fill="#102441"/>
<path d="M256.377 501.897C274.857 501.897 293.337 501.897 312.377 501.897C312.377 507.177 312.377 512.457 312.377 517.897C293.897 517.897 275.417 517.897 256.377 517.897C256.377 512.617 256.377 507.337 256.377 501.897Z" fill="white"/>
<path d="M329.377 501.897C347.527 501.897 365.677 501.897 384.377 501.897C384.377 507.177 384.377 512.457 384.377 517.897C357.152 518.392 357.152 518.392 329.377 518.897C329.377 513.287 329.377 507.677 329.377 501.897Z" fill="#102441"/>
<path d="M374.377 533.897C374.377 538.187 374.377 542.477 374.377 546.897C370.947 547.583 368.497 548.022 365.137 548.011C364.337 548.011 363.537 548.011 362.712 548.011C361.438 548.003 361.438 548.003 360.139 547.995C359.258 547.994 358.377 547.992 357.47 547.991C354.668 547.985 351.866 547.973 349.064 547.96C347.16 547.955 345.256 547.95 343.352 547.946C338.693 547.935 334.035 547.918 329.377 547.897C329.377 543.607 329.377 539.317 329.377 534.897C335.464 534.755 341.551 534.612 347.639 534.47C349.711 534.422 351.783 534.373 353.854 534.325C356.828 534.255 359.802 534.186 362.775 534.116C363.706 534.094 364.636 534.072 365.594 534.05C366.455 534.03 367.316 534.01 368.203 533.989C368.962 533.971 369.722 533.954 370.504 533.935C371.795 533.909 373.086 533.897 374.377 533.897Z" fill="#102441"/>
<path d="M185.244 466.784C186.496 466.789 187.748 466.794 189.037 466.8C190.034 466.802 190.034 466.802 191.051 466.804C193.18 466.81 195.31 466.822 197.439 466.835C198.88 466.84 200.321 466.845 201.762 466.849C205.3 466.859 208.838 466.878 212.377 466.897C212.377 473.167 212.377 479.437 212.377 485.897C201.969 485.99 191.752 485.732 181.377 484.897C181.35 482.085 181.33 479.273 181.314 476.46C181.306 475.658 181.298 474.855 181.289 474.028C181.28 471.985 181.325 469.941 181.377 467.897C182.377 466.897 182.377 466.897 185.244 466.784Z" fill="#102441"/>
<path d="M265.377 534.897C280.887 534.897 296.397 534.897 312.377 534.897C312.377 538.857 312.377 542.817 312.377 546.897C296.867 546.897 281.357 546.897 265.377 546.897C265.377 542.937 265.377 538.977 265.377 534.897Z" fill="#102441"/>
<path d="M431.377 466.897C440.617 466.897 449.857 466.897 459.377 466.897C459.047 472.837 458.717 478.777 458.377 484.897C449.137 485.227 439.897 485.557 430.377 485.897C430.356 483.134 430.336 480.37 430.314 477.522C430.305 476.653 430.296 475.784 430.287 474.888C430.266 469.12 430.266 469.12 431.377 466.897Z" fill="#102441"/>
<path d="M281.377 562.147C283.219 562.208 285.062 562.262 286.904 562.311C291.4 562.443 295.886 562.65 300.377 562.897C300.377 563.227 300.377 563.557 300.377 563.897C298.751 563.864 298.751 563.864 297.092 563.83C293.045 563.761 289 563.759 284.953 563.775C283.206 563.773 281.46 563.754 279.713 563.716C269.62 563.15 269.62 563.15 260.761 567.008C258.967 569.566 257.645 572.048 256.377 574.897C255.692 575.886 255.008 576.875 254.303 577.893C248.502 586.671 244.545 594.253 246.006 604.913C246.986 612.799 246.722 620.783 245.655 628.641C243.711 643.458 244.149 658.422 244.24 673.334C244.26 677.129 244.269 680.924 244.279 684.72C244.3 692.112 244.334 699.505 244.377 706.897C239.275 697.176 241.131 683.357 240.931 672.558C240.839 667.632 240.736 662.706 240.631 657.78C240.6 656.342 240.6 656.342 240.569 654.875C240.411 647.752 240.154 640.64 239.814 633.522C239.482 626.024 239.191 618.527 239.064 611.022C239.02 609.711 239.02 609.711 238.974 608.372C238.885 598.664 242.933 590.994 248.127 583.022C248.519 582.405 248.911 581.787 249.314 581.151C250.16 579.827 251.031 578.518 251.922 577.224C253.496 574.827 253.496 574.827 254.785 571.743C260.793 559.846 269.57 561.477 281.377 562.147Z" fill="#102441"/>
<path d="M306.377 174.898C306.377 175.558 306.377 176.218 306.377 176.898C306.975 176.918 307.573 176.939 308.189 176.96C310.377 177.898 310.377 177.898 312.189 181.023C313.648 184.932 313.504 187.841 312.377 191.898C310.201 195.273 308.267 197.709 304.377 198.898C298.215 199.494 295.338 198.914 290.377 194.898C288.377 192.898 288.377 192.898 287.877 190.273C288.783 184.16 292.75 180.253 297.377 176.398C300.676 174.748 302.738 174.551 306.377 174.898Z" fill="white"/>
<path d="M413.377 656.897C426.751 683.503 426.751 683.503 428.377 689.897C428.047 690.887 427.717 691.877 427.377 692.897C424.506 694.065 424.506 694.065 420.939 695.085C419.765 695.429 418.591 695.773 417.381 696.128C414.377 696.897 414.377 696.897 412.377 696.897C412.347 692.481 412.33 688.064 412.314 683.647C412.306 682.413 412.298 681.178 412.289 679.905C412.269 672.181 412.587 664.582 413.377 656.897Z" fill="#102441"/>
<path d="M228.377 652.897C229.037 652.897 229.697 652.897 230.377 652.897C230.377 667.747 230.377 682.597 230.377 697.897C220.377 693.897 220.377 693.897 216.377 691.897C217.755 687.086 219.223 682.313 220.842 677.577C223.53 669.709 225.943 662.11 227.377 653.897C227.707 653.567 228.037 653.237 228.377 652.897Z" fill="#102441"/>
<path d="M104.377 375.897C108.035 377.937 110.046 379.402 112.377 382.897C112.377 388.031 112.184 389.952 108.814 393.897C104.32 396.512 102.501 396.711 97.377 395.897C93.763 392.975 91.6338 390.781 91.002 386.147C91.5241 381.622 93.2192 380.13 96.377 376.897C99.243 375.464 101.19 375.591 104.377 375.897Z" fill="white"/>
<path d="M540.377 375.897C542.942 377.397 545.269 378.789 547.377 380.897C548.056 385.589 548.043 388.898 545.377 392.897C541.708 395.344 538.795 396.362 534.377 395.897C530.944 393.882 528.517 391.772 527.377 387.897C527.585 383.019 529.054 380.421 532.377 376.897C535.243 375.464 537.19 375.591 540.377 375.897Z" fill="white"/>
<path d="M471.377 213.897C475.977 216.097 475.977 216.097 477.377 218.897C477.722 221.907 477.956 223.992 477.377 226.897C474.221 230.516 472.37 231.584 467.814 233.022C464.377 232.897 464.377 232.897 461.502 230.522C460.801 229.656 460.099 228.79 459.377 227.897C459.047 227.567 458.717 227.237 458.377 226.897C457.977 222.733 457.935 220.575 460.252 217.022C463.843 213.431 466.369 213.558 471.377 213.897Z" fill="white"/>
<path d="M177.377 214.898C179.985 216.395 182.247 217.768 184.377 219.898C184.752 223.148 184.752 223.148 184.377 226.898C181.939 229.773 181.939 229.773 179.377 231.898C179.047 232.228 178.717 232.558 178.377 232.898C173.391 233.281 170.389 232.966 166.377 229.898C164.762 226.668 164.796 223.389 165.377 219.898C168.762 214.973 171.52 213.973 177.377 214.898Z" fill="white"/>
<path d="M322.002 294.772C326.092 296.136 327.355 297.096 329.377 300.897C330.115 305.047 329.795 308.042 327.939 311.835C326.377 313.897 326.377 313.897 325.377 314.897C322.374 315.248 320.285 315.455 317.377 314.897C314.121 312.252 312.794 310.713 311.865 306.671C311.62 303.406 311.685 300.972 313.486 298.175C316.242 295.516 318.221 294.903 322.002 294.772Z" fill="#102441"/>
<path d="M107.439 447.421C110.992 448.295 112.388 449.914 114.377 452.897C115.075 455.735 115.082 458.06 114.377 460.897C111.865 464.475 110.037 465.657 105.939 467.147C102.037 466.874 101.511 466.59 98.9395 463.897C96.902 461.148 96.3476 459.742 95.6895 456.272C97.032 449.682 100.933 446.953 107.439 447.421Z" fill="white"/>
<path d="M537.377 447.897C540.814 449.897 540.814 449.897 543.377 452.897C544.484 457.089 543.827 460.051 541.814 463.835C538.636 466.524 536.504 466.824 532.377 466.897C529.472 466.091 528.524 465.07 526.564 462.772C524.951 458.865 525.161 455.914 526.377 451.897C529.304 447.394 532.215 447.096 537.377 447.897Z" fill="white" fill-opacity="0.92549"/>
<path d="M324.377 332.897C327.729 335.322 329.156 336.742 329.939 340.835C329.19 344.916 327.319 347.956 324.377 350.897C320.084 351.393 318.063 351.39 314.502 348.835C311.949 345.306 311.299 343.248 311.377 338.897C314.94 333.246 317.771 332.226 324.377 332.897Z" fill="#102441"/>
<path d="M182.377 466.897C192.277 466.897 202.177 466.897 212.377 466.897C212.377 473.167 212.377 479.437 212.377 485.897C207.097 485.897 201.817 485.897 196.377 485.897C196.377 485.567 196.377 485.237 196.377 484.897C198.027 484.567 199.677 484.237 201.377 483.897C201.213 483.356 201.05 482.815 200.881 482.257C199.943 477.863 200.324 473.371 200.377 468.897C194.437 468.567 188.497 468.237 182.377 467.897C182.377 467.567 182.377 467.237 182.377 466.897Z" fill="#102441"/>
<path d="M243.377 595.897C244.037 596.227 244.697 596.557 245.377 596.897C247.494 607.004 247.038 618.453 245.655 628.641C243.711 643.458 244.149 658.422 244.24 673.334C244.26 677.129 244.269 680.924 244.279 684.72C244.301 692.112 244.334 699.505 244.377 706.897C239.25 697.127 241.097 683.149 240.874 672.292C240.815 669.431 240.75 666.571 240.684 663.71C240.411 651.437 240.324 639.173 240.377 626.897C240.707 626.897 241.037 626.897 241.377 626.897C241.707 628.877 242.037 630.857 242.377 632.897C243.617 629.07 243.504 625.264 243.475 621.288C243.473 620.561 243.472 619.834 243.47 619.086C243.465 616.773 243.452 614.46 243.439 612.147C243.434 610.576 243.43 609.004 243.426 607.433C243.415 603.588 243.398 599.743 243.377 595.897Z" fill="#102441"/>
<path d="M418.377 524.897C419.037 525.227 419.697 525.557 420.377 525.897C420.4 534.043 420.418 542.188 420.429 550.333C420.434 554.115 420.441 557.897 420.452 561.679C420.463 565.33 420.469 568.98 420.472 572.63C420.474 574.023 420.477 575.415 420.483 576.807C420.49 578.758 420.49 580.709 420.49 582.66C420.493 583.77 420.495 584.881 420.497 586.025C420.393 588.515 420.06 590.52 419.377 592.897C419.234 594.556 419.131 596.219 419.06 597.882C419.019 598.816 418.977 599.751 418.934 600.714C418.894 601.682 418.855 602.65 418.814 603.647C418.771 604.631 418.728 605.615 418.684 606.628C418.578 609.051 418.476 611.474 418.377 613.897C418.047 613.897 417.717 613.897 417.377 613.897C417.379 612.952 417.381 612.007 417.384 611.032C417.404 602.13 417.419 593.228 417.429 584.325C417.434 579.748 417.441 575.171 417.452 570.594C417.463 566.179 417.469 561.763 417.472 557.348C417.474 555.662 417.477 553.976 417.483 552.29C417.49 549.931 417.491 547.573 417.49 545.215C417.494 544.515 417.498 543.815 417.501 543.094C417.495 540.075 417.34 537.788 416.377 534.897C416.145 532.174 416.246 529.647 416.377 526.897C417.037 526.237 417.697 525.577 418.377 524.897Z" fill="#102441"/>
<path d="M294.752 206.522C298.377 206.897 298.377 206.897 300.814 208.522C302.825 211.579 302.912 213.304 302.377 216.897C301.314 218.71 301.314 218.71 299.377 219.897C295.877 220.772 295.877 220.772 292.377 220.897C290.678 219.69 290.678 219.69 289.377 217.897C289.014 215.706 289.014 215.706 289.064 213.335C289.068 212.55 289.072 211.765 289.076 210.956C289.627 207.189 291.15 206.923 294.752 206.522Z" fill="white"/>
<path d="M240.377 602.897C243.377 604.897 243.377 604.897 244.054 606.738C244.652 610.738 244.562 614.735 244.564 618.772C244.577 619.658 244.589 620.544 244.602 621.456C244.612 626.346 244.293 630.309 242.377 634.897C242.047 634.897 241.717 634.897 241.377 634.897C240.32 628.038 240.261 621.33 240.314 614.397C240.319 613.289 240.323 612.18 240.328 611.038C240.34 608.324 240.356 605.611 240.377 602.897Z" fill="#102441"/>
<path d="M398.377 661.897C398.707 661.897 399.037 661.897 399.377 661.897C399.309 668.298 399.219 674.699 399.115 681.099C399.082 683.269 399.053 685.44 399.031 687.61C398.892 700.363 398.357 712.458 395.377 724.897C395.047 724.897 394.717 724.897 394.377 724.897C394.449 724.203 394.521 723.508 394.596 722.792C395.142 716.801 395.401 710.95 395.295 704.94C395.05 690.457 396.678 676.261 398.377 661.897Z" fill="#102441"/>
<path d="M178.377 502.897C193.083 502.78 207.7 502.918 222.377 503.897C222.377 507.197 222.377 510.497 222.377 513.897C222.047 513.897 221.717 513.897 221.377 513.897C221.377 510.927 221.377 507.957 221.377 504.897C220.643 504.933 219.909 504.969 219.152 505.005C205.49 505.646 192.008 506.254 178.377 504.897C178.377 504.237 178.377 503.577 178.377 502.897Z" fill="#102441"/>
<path d="M381.377 560.897C383.859 564.62 385.905 568.511 388.002 572.46C388.632 573.631 388.632 573.631 389.275 574.825C389.672 575.572 390.069 576.319 390.479 577.089C390.843 577.772 391.207 578.454 391.583 579.157C392.377 580.897 392.377 580.897 392.377 582.897C389.377 581.897 389.377 581.897 388.35 580.042C388.049 579.272 387.749 578.503 387.439 577.71C386.214 574.739 384.972 572.093 383.127 569.46C381.377 566.897 381.377 566.897 381.377 564.897C371.477 564.897 361.577 564.897 351.377 564.897C351.377 564.567 351.377 564.237 351.377 563.897C366.227 563.402 366.227 563.402 381.377 562.897C381.377 562.237 381.377 561.577 381.377 560.897Z" fill="#102441"/>
<path d="M243.377 595.897C244.367 596.392 244.367 596.392 245.377 596.897C248.428 611.463 246.137 627.299 244.377 641.897C244.047 641.897 243.717 641.897 243.377 641.897C243.377 626.717 243.377 611.537 243.377 595.897Z" fill="#102441"/>
<path d="M426.4 502.765C428.171 502.762 428.171 502.762 429.978 502.759C431.223 502.763 432.469 502.768 433.752 502.772C435.643 502.775 435.643 502.775 437.573 502.778C445.881 502.817 454.109 503.027 462.377 503.897C462.377 504.227 462.377 504.557 462.377 504.897C460.697 504.874 460.697 504.874 458.984 504.85C454.813 504.795 450.642 504.761 446.471 504.733C444.669 504.718 442.867 504.697 441.065 504.671C438.468 504.635 435.872 504.618 433.275 504.604C432.475 504.589 431.675 504.574 430.85 504.558C425.944 504.556 422.64 505.203 418.377 507.897C416.524 509.947 416.524 509.947 415.377 511.897C415.377 510.247 415.377 508.597 415.377 506.897C416.037 506.567 416.697 506.237 417.377 505.897C417.047 505.237 416.717 504.577 416.377 503.897C419.766 502.871 422.868 502.768 426.4 502.765Z" fill="#102441"/>
<path d="M281.252 562.335C283.103 562.38 284.955 562.421 286.807 562.458C291.333 562.557 295.854 562.712 300.377 562.898C300.377 563.228 300.377 563.558 300.377 563.898C298.751 563.864 298.751 563.864 297.092 563.831C293.045 563.762 289 563.759 284.953 563.776C283.207 563.774 281.46 563.754 279.713 563.716C269.558 563.126 269.558 563.126 260.737 567.129C259.013 569.649 257.726 572.168 256.377 574.898C255.387 575.558 254.397 576.218 253.377 576.898C253.668 576.171 253.959 575.445 254.259 574.696C254.949 572.969 255.6 571.225 256.186 569.46C260.811 559.381 271.84 561.938 281.252 562.335Z" fill="#102441"/>
<path d="M431.377 671.897C433.536 675.135 433.897 677.008 434.482 680.808C434.661 681.962 434.839 683.116 435.023 684.306C435.202 685.512 435.381 686.717 435.564 687.96C435.755 689.17 435.945 690.38 436.141 691.626C437.506 700.639 437.506 700.639 436.377 702.897C432.641 696.02 431.74 690.097 431.627 682.335C431.597 681.326 431.568 680.318 431.537 679.278C431.467 676.818 431.414 674.359 431.377 671.897Z" fill="#102441"/>
<path d="M237.377 550.897C237.707 550.897 238.037 550.897 238.377 550.897C238.886 552.457 239.384 554.02 239.877 555.585C240.155 556.455 240.434 557.325 240.721 558.222C241.966 563.298 241.557 566.221 238.877 570.71C238.413 571.5 237.949 572.29 237.471 573.104C237.11 573.696 236.749 574.288 236.377 574.897C235.377 571.897 235.377 571.897 236.377 568.897C236.522 567.491 236.623 566.079 236.693 564.667C236.735 563.865 236.777 563.062 236.82 562.235C236.86 561.402 236.899 560.569 236.939 559.71C236.983 558.865 237.026 558.02 237.07 557.149C237.176 555.066 237.277 552.982 237.377 550.897Z" fill="#102441"/>
<path d="M206.377 686.897C206.707 686.897 207.037 686.897 207.377 686.897C208.357 697.027 204.805 705.531 201.377 714.897C200.123 711.31 200.644 708.892 201.592 705.257C202.003 703.652 202.003 703.652 202.422 702.015C202.716 700.903 203.011 699.792 203.314 698.647C203.605 697.521 203.896 696.394 204.195 695.233C204.914 692.452 205.642 689.674 206.377 686.897Z" fill="#102441"/>
<path d="M240.377 596.897C241.367 596.897 242.357 596.897 243.377 596.897C243.377 599.537 243.377 602.177 243.377 604.897C242.387 605.392 242.387 605.392 241.377 605.897C241.047 611.507 240.717 617.117 240.377 622.897C240.047 622.897 239.717 622.897 239.377 622.897C239.348 619.314 239.33 615.731 239.314 612.147C239.306 611.132 239.298 610.116 239.289 609.069C239.286 608.09 239.283 607.11 239.279 606.101C239.274 605.2 239.269 604.299 239.263 603.371C239.369 601.064 239.726 599.106 240.377 596.897Z" fill="#102441"/>
</svg>
