<svg id="visual" viewBox="0 0 900 600" width="900" height="600" xmlns="http://www.w3.org/2000/svg" xmlns:xlink="http://www.w3.org/1999/xlink" version="1.1"><path d="M0 97L13.7 94C27.3 91 54.7 85 82 83C109.3 81 136.7 83 163.8 76C191 69 218 53 245.2 55C272.3 57 299.7 77 327 80C354.3 83 381.7 69 409 69C436.3 69 463.7 83 491 91C518.3 99 545.7 101 573 100C600.3 99 627.7 95 654.8 86C682 77 709 63 736.2 57C763.3 51 790.7 53 818 58C845.3 63 872.7 71 886.3 75L900 79L900 0L886.3 0C872.7 0 845.3 0 818 0C790.7 0 763.3 0 736.2 0C709 0 682 0 654.8 0C627.7 0 600.3 0 573 0C545.7 0 518.3 0 491 0C463.7 0 436.3 0 409 0C381.7 0 354.3 0 327 0C299.7 0 272.3 0 245.2 0C218 0 191 0 163.8 0C136.7 0 109.3 0 82 0C54.7 0 27.3 0 13.7 0L0 0Z" fill="#f8fafe"></path><path d="M0 235L13.7 234C27.3 233 54.7 231 82 225C109.3 219 136.7 209 163.8 197C191 185 218 171 245.2 173C272.3 175 299.7 193 327 192C354.3 191 381.7 171 409 165C436.3 159 463.7 167 491 176C518.3 185 545.7 195 573 198C600.3 201 627.7 197 654.8 189C682 181 709 169 736.2 163C763.3 157 790.7 157 818 165C845.3 173 872.7 189 886.3 197L900 205L900 77L886.3 73C872.7 69 845.3 61 818 56C790.7 51 763.3 49 736.2 55C709 61 682 75 654.8 84C627.7 93 600.3 97 573 98C545.7 99 518.3 97 491 89C463.7 81 436.3 67 409 67C381.7 67 354.3 81 327 78C299.7 75 272.3 55 245.2 53C218 51 191 67 163.8 74C136.7 81 109.3 79 82 81C54.7 83 27.3 89 13.7 92L0 95Z" fill="#f6f8fe"></path><path d="M0 367L13.7 357C27.3 347 54.7 327 82 315C109.3 303 136.7 299 163.8 309C191 319 218 343 245.2 345C272.3 347 299.7 327 327 316C354.3 305 381.7 303 409 319C436.3 335 463.7 369 491 384C518.3 399 545.7 395 573 384C600.3 373 627.7 355 654.8 340C682 325 709 313 736.2 325C763.3 337 790.7 373 818 382C845.3 391 872.7 373 886.3 364L900 355L900 203L886.3 195C872.7 187 845.3 171 818 163C790.7 155 763.3 155 736.2 161C709 167 682 179 654.8 187C627.7 195 600.3 199 573 196C545.7 193 518.3 183 491 174C463.7 165 436.3 157 409 163C381.7 169 354.3 189 327 190C299.7 191 272.3 173 245.2 171C218 169 191 183 163.8 195C136.7 207 109.3 217 82 223C54.7 229 27.3 231 13.7 232L0 233Z" fill="#f4f7fd"></path><path d="M0 439L13.7 433C27.3 427 54.7 415 82 402C109.3 389 136.7 375 163.8 391C191 407 218 453 245.2 458C272.3 463 299.7 427 327 413C354.3 399 381.7 407 409 425C436.3 443 463.7 471 491 473C518.3 475 545.7 451 573 438C600.3 425 627.7 423 654.8 413C682 403 709 385 736.2 398C763.3 411 790.7 455 818 461C845.3 467 872.7 435 886.3 419L900 403L900 353L886.3 362C872.7 371 845.3 389 818 380C790.7 371 763.3 335 736.2 323C709 311 682 323 654.8 338C627.7 353 600.3 371 573 382C545.7 393 518.3 397 491 382C463.7 367 436.3 333 409 317C381.7 301 354.3 303 327 314C299.7 325 272.3 345 245.2 343C218 341 191 317 163.8 307C136.7 297 109.3 301 82 313C54.7 325 27.3 345 13.7 355L0 365Z" fill="#e6edfb"></path><path d="M0 601L13.7 601C27.3 601 54.7 601 82 601C109.3 601 136.7 601 163.8 601C191 601 218 601 245.2 601C272.3 601 299.7 601 327 601C354.3 601 381.7 601 409 601C436.3 601 463.7 601 491 601C518.3 601 545.7 601 573 601C600.3 601 627.7 601 654.8 601C682 601 709 601 736.2 601C763.3 601 790.7 601 818 601C845.3 601 872.7 601 886.3 601L900 601L900 401L886.3 417C872.7 433 845.3 465 818 459C790.7 453 763.3 409 736.2 396C709 383 682 401 654.8 411C627.7 421 600.3 423 573 436C545.7 449 518.3 473 491 471C463.7 469 436.3 441 409 423C381.7 405 354.3 397 327 411C299.7 425 272.3 461 245.2 456C218 451 191 405 163.8 389C136.7 373 109.3 387 82 400C54.7 413 27.3 425 13.7 431L0 437Z" fill="#d8e3f8"></path></svg>