<svg id="visual" viewBox="0 0 900 600" width="900" height="600" xmlns="http://www.w3.org/2000/svg" xmlns:xlink="http://www.w3.org/1999/xlink" version="1.1"><rect x="0" y="0" width="900" height="600" fill="#F5F8FF"></rect><path d="M0 405L21.5 415.5C43 426 86 447 128.8 456.8C171.7 466.7 214.3 465.3 257.2 456.8C300 448.3 343 432.7 385.8 427.5C428.7 422.3 471.3 427.7 514.2 427.8C557 428 600 423 642.8 419.2C685.7 415.3 728.3 412.7 771.2 412.3C814 412 857 414 878.5 415L900 416L900 601L878.5 601C857 601 814 601 771.2 601C728.3 601 685.7 601 642.8 601C600 601 557 601 514.2 601C471.3 601 428.7 601 385.8 601C343 601 300 601 257.2 601C214.3 601 171.7 601 128.8 601C86 601 43 601 21.5 601L0 601Z" fill="#d0e1ff"></path><path d="M0 499L21.5 499.7C43 500.3 86 501.7 128.8 501.2C171.7 500.7 214.3 498.3 257.2 494.2C300 490 343 484 385.8 485C428.7 486 471.3 494 514.2 488.8C557 483.7 600 465.3 642.8 458C685.7 450.7 728.3 454.3 771.2 463.3C814 472.3 857 486.7 878.5 493.8L900 501L900 601L878.5 601C857 601 814 601 771.2 601C728.3 601 685.7 601 642.8 601C600 601 557 601 514.2 601C471.3 601 428.7 601 385.8 601C343 601 300 601 257.2 601C214.3 601 171.7 601 128.8 601C86 601 43 601 21.5 601L0 601Z" fill="#9bacce"></path><path d="M0 512L21.5 511.2C43 510.3 86 508.7 128.8 507.5C171.7 506.3 214.3 505.7 257.2 501.3C300 497 343 489 385.8 484.5C428.7 480 471.3 479 514.2 480.3C557 481.7 600 485.3 642.8 492.7C685.7 500 728.3 511 771.2 515C814 519 857 516 878.5 514.5L900 513L900 601L878.5 601C857 601 814 601 771.2 601C728.3 601 685.7 601 642.8 601C600 601 557 601 514.2 601C471.3 601 428.7 601 385.8 601C343 601 300 601 257.2 601C214.3 601 171.7 601 128.8 601C86 601 43 601 21.5 601L0 601Z" fill="#687a9f"></path><path d="M0 521L21.5 519.7C43 518.3 86 515.7 128.8 520.5C171.7 525.3 214.3 537.7 257.2 538.7C300 539.7 343 529.3 385.8 528.8C428.7 528.3 471.3 537.7 514.2 539C557 540.3 600 533.7 642.8 533.5C685.7 533.3 728.3 539.7 771.2 542.5C814 545.3 857 544.7 878.5 544.3L900 544L900 601L878.5 601C857 601 814 601 771.2 601C728.3 601 685.7 601 642.8 601C600 601 557 601 514.2 601C471.3 601 428.7 601 385.8 601C343 601 300 601 257.2 601C214.3 601 171.7 601 128.8 601C86 601 43 601 21.5 601L0 601Z" fill="#374b72"></path><path d="M0 551L21.5 551.2C43 551.3 86 551.7 128.8 550.8C171.7 550 214.3 548 257.2 550.5C300 553 343 560 385.8 563.3C428.7 566.7 471.3 566.3 514.2 563.3C557 560.3 600 554.7 642.8 553.2C685.7 551.7 728.3 554.3 771.2 553.3C814 552.3 857 547.7 878.5 545.3L900 543L900 601L878.5 601C857 601 814 601 771.2 601C728.3 601 685.7 601 642.8 601C600 601 557 601 514.2 601C471.3 601 428.7 601 385.8 601C343 601 300 601 257.2 601C214.3 601 171.7 601 128.8 601C86 601 43 601 21.5 601L0 601Z" fill="#002147"></path></svg>